# xmcd
#
# Track frame offsets: 
#        150
#        19106
#        34929
#        50752
#        72968
#        90844
#        108087
#        122184
#        137366
#        150168
#
# Disc length: 2418 seconds
#
# Revision: 0
# Processed by: cddbd v1.5.2PL0 Copyright (c) Steve Scherf et al.
# Submitted via: ExactAudioCopy v0.95b3
#
DISCID=7309700a
DTITLE=Brownsville Station  - Private Stock - Martian Boogie
DYEAR=1900
DGENRE=
TTITLE0=Hot Split
TTITLE1=Sleazy Louse
TTITLE2=Lady put the Light on Me
TTITLE3=Mr. Johnson Sex
TTITLE4=Lover
TTITLE5=Throw Me a Lifeline
TTITLE6=Rockers-n-Rollers
TTITLE7=My Friend Jack
TTITLE8=Ain't That a Shame
TTITLE9=The Martian Boogie
EXTD=
EXTT0=
EXTT1=
EXTT2=
EXTT3=
EXTT4=
EXTT5=
EXTT6=
EXTT7=
EXTT8=
EXTT9=
PLAYORDER=
